<?xml version="1.0" encoding="UTF-8" standalone="no"?>
<svg
   xmlns:dc="http://purl.org/dc/elements/1.1/"
   xmlns:cc="http://creativecommons.org/ns#"
   xmlns:rdf="http://www.w3.org/1999/02/22-rdf-syntax-ns#"
   xmlns:svg="http://www.w3.org/2000/svg"
   xmlns="http://www.w3.org/2000/svg"
   xmlns:sodipodi="http://sodipodi.sourceforge.net/DTD/sodipodi-0.dtd"
   xmlns:inkscape="http://www.inkscape.org/namespaces/inkscape"
   width="195.5878"
   height="94.7201"
   viewBox="0 0 195.58778 94.720097"
   version="1.1"
   id="svg903"
   sodipodi:docname="tile.svg"
   inkscape:version="1.0.2 (e86c8708, 2021-01-15)"
   inkscape:export-filename="/Users/mdk/Projects/cv/src/static/icon-rect-310.png"
   inkscape:export-xdpi="152.16"
   inkscape:export-ydpi="152.16">
  <metadata
     id="metadata909">
    <rdf:RDF>
      <cc:Work
         rdf:about="">
        <dc:format>image/svg+xml</dc:format>
        <dc:type
           rdf:resource="http://purl.org/dc/dcmitype/StillImage" />
        <dc:title></dc:title>
      </cc:Work>
    </rdf:RDF>
  </metadata>
  <defs
     id="defs907" />
  <sodipodi:namedview
     pagecolor="#ffffff"
     bordercolor="#666666"
     borderopacity="1"
     objecttolerance="10"
     gridtolerance="10"
     guidetolerance="10"
     inkscape:pageopacity="0"
     inkscape:pageshadow="2"
     inkscape:window-width="1548"
     inkscape:window-height="928"
     id="namedview905"
     showgrid="false"
     inkscape:zoom="2.78125"
     inkscape:cx="154.00988"
     inkscape:cy="47.358873"
     inkscape:window-x="0"
     inkscape:window-y="25"
     inkscape:window-maximized="0"
     inkscape:current-layer="svg903" />
  <path
     fill="#0072ed"
     d="m 44.733088,3.2359551 c -3.011688,0 -5.829586,1.563219 -8.345601,4.2928269 -2.897994,0.1975463 -5.675348,0.7986009 -8.316598,1.7779351 -1.56649,-0.9674244 -3.000159,-1.5306453 -4.235093,-1.5306453 -0.721127,0 -1.382586,0.1667195 -1.962326,0.4973691 -1.608344,0.9257491 -2.333416,2.9092891 -2.226958,5.9275141 -1.614939,1.335203 -3.084859,2.830128 -4.387689,4.48687 -1.706238,1.657446 -3.243062,3.473919 -4.63949,5.396163 -2.0071441,-0.696324 -3.7163325,-1.17688 -4.7228673,-1.17688 -1.3216158,0 -1.9468246,0.601402 -2.2427898,1.10683 -0.6261995,1.085114 -0.6337761,2.409816 3.437511,5.919455 -2.6606964,5.360077 -4.1998328,11.34468 -4.214665,17.686908 -0.025683,10.65046 4.1642428,20.345414 10.9858701,27.652258 1.616923,4.978293 4.497113,8.782853 8.486671,11.076736 2.658715,1.532054 5.685245,2.309286 8.989936,2.309286 1.686779,0 3.418716,-0.219619 5.17241,-0.612964 2.485022,2.644492 5.259432,4.157629 8.221679,4.157629 3.009056,0 5.82367,-1.56042 8.337695,-4.285472 2.898654,-0.196852 5.677669,-0.795098 8.320891,-1.774085 1.56781,0.968824 3.007075,1.535558 4.243009,1.535558 0.720778,0 1.376321,-0.16918 1.957694,-0.502281 1.668333,-0.959028 2.286286,-3.077418 2.214767,-5.87392 1.62813,-1.346766 3.071678,-2.872161 4.366931,-4.523652 1.752374,-1.698783 3.333695,-3.558678 4.759118,-5.536273 2.010437,0.699133 3.718314,1.181098 4.722867,1.181098 1.32623,0 1.955732,-0.601759 2.243451,-1.099128 0.203018,-0.345359 0.398799,-0.918395 0.19446,-1.675311 C 85.82701,68.651519 84.46386,67.16641 82.424759,65.398281 85.051507,60.067265 86.57416,54.123294 86.589322,47.826254 86.613355,37.120801 82.381253,27.383119 75.488105,20.062966 73.902831,15.226877 71.115249,11.386936 67.121737,9.089202 64.462691,7.5585567 61.439794,6.7844707 58.135433,6.7844707 c -1.687449,0 -3.418404,0.2241745 -5.172419,0.616468 C 50.476002,4.7501445 47.698968,3.2363026 44.732758,3.2363026 Z m 0,3.1814414 c 0.67465,0 1.351941,0.166729 2.028893,0.4115578 -0.676292,-0.03325 -1.352922,-0.051847 -2.03679,-0.053632 -0.673998,0 -1.346006,0.018879 -2.012419,0.04903 C 43.386431,6.58267 44.062402,6.41735 44.733088,6.41735 Z m 17.261716,4.0665575 c 1.242511,0.312438 2.41087,0.784587 3.499463,1.411566 0.846032,0.486868 1.607693,1.08301 2.32584,1.729253 -1.841688,-1.196502 -3.794108,-2.235733 -5.825303,-3.140819 z m -23.413308,0.123645 c 1.716114,0 3.437511,0.162869 5.151983,0.457094 -2.589177,1.464803 -5.157257,3.281971 -7.651506,5.401066 -0.380336,-0.422416 -0.752434,-0.804556 -1.127825,-1.202457 0.921504,-1.817873 1.913206,-3.350622 2.941829,-4.634691 0.229051,-0.0066 0.454817,-0.02104 0.685519,-0.02104 z m -14.749662,0.362172 c 0.126234,0 0.281133,0.05081 0.421869,0.0743 -0.196433,0.106832 -0.39681,0.201049 -0.59127,0.312784 -0.212577,0.122593 -0.402744,0.272152 -0.611367,0.399301 0.125234,-0.394745 0.283435,-0.630473 0.425153,-0.712085 0.08705,-0.04621 0.205669,-0.0743 0.355945,-0.0743 z m 32.263168,0.646233 c 6.406363,1.928903 12.089626,5.450105 16.60421,10.07639 0.66244,2.192648 1.027613,4.633986 1.140345,7.236437 C 69.363206,21.797469 63.285756,16.052097 56.503681,12.311633 56.36987,12.076253 56.231784,11.844029 56.095002,11.616361 Z m -22.731734,0.0084 c -0.25311,0.421376 -0.508541,0.838889 -0.751443,1.288271 -0.269263,-0.253583 -0.537206,-0.504376 -0.801856,-0.741155 0.518751,-0.180734 1.024,-0.387738 1.552978,-0.54746 z m 15.154049,0.633976 c 1.923434,0.629777 3.814874,1.443087 5.660524,2.407712 3.84619,7.222442 6.634433,18.76712 6.635414,33.05262 0,0.927148 -0.03495,1.820324 -0.05797,2.725061 C 59.70162,49.791629 58.757377,49.222453 57.718866,48.590929 56.504699,46.301949 55.316894,44.139075 54.22797,42.26061 49.435895,33.993339 43.656392,25.419942 38.176807,18.884723 c 3.371597,-2.873559 6.873371,-5.109649 10.341198,-6.626985 z m -20.012699,1.230487 c 0.820651,0.677051 1.700621,1.475652 2.644204,2.411911 -1.123853,2.554125 -2.096119,5.450105 -2.91677,8.594417 -0.702662,0.852196 -1.392144,1.729253 -2.065803,2.630478 -0.448892,-1.204908 -0.870752,-2.381788 -1.239218,-3.511396 -0.998628,-3.054997 -1.535183,-5.367431 -1.822581,-7.182852 1.702942,-1.125399 3.519249,-2.088615 5.400168,-2.942915 z m 30.507162,4.140817 c 5.106496,3.640638 9.627005,8.540822 13.014433,14.38602 0.584336,1.008761 1.106389,2.031527 1.607024,3.057796 -0.658166,6.199667 -2.635976,12.999336 -5.924514,19.774491 -1.263947,-0.819622 -2.512053,-1.625229 -3.805335,-2.440643 0.06687,-1.539052 0.103495,-3.10229 0.103495,-4.688633 0,-11.72682 -1.889477,-22.220018 -4.995103,-30.089388 z m -25.483064,0.827314 c 0.05173,0.05711 0.100844,0.107179 0.152926,0.164625 -0.116997,0.110683 -0.230701,0.229425 -0.347047,0.341507 0.06522,-0.167076 0.127885,-0.341855 0.194451,-0.506132 z m -13.311701,0.08228 c 0.377363,1.794053 0.924788,3.809472 1.661078,6.06307 0.540508,1.658141 1.190767,3.414013 1.896072,5.219618 -3.379842,-1.656741 -6.450529,-3.057796 -9.167916,-4.194401 0.845044,-1.719795 1.855532,-3.305086 2.98698,-4.77514 0.839116,-0.807711 1.7125,-1.582492 2.623456,-2.313494 z m 15.571625,2.511389 c 4.707714,5.618233 10.164229,13.322631 15.66293,22.807415 0.298267,0.514886 0.562587,1.003859 0.850966,1.510338 -1.51936,-0.896678 -3.245041,-1.956573 -4.602577,-2.737309 -5.808177,-3.340469 -12.042818,-6.748884 -17.934705,-9.792319 0.367475,-2.382493 0.812744,-4.635039 1.334797,-6.742571 1.511114,-1.808067 3.076622,-3.502642 4.689249,-5.046249 z m 41.058973,5.639245 c 4.161602,6.041344 6.586973,13.314919 6.569509,21.127896 -0.01055,4.668317 -0.935997,9.120866 -2.541058,13.249772 1.372368,-8.396514 0.118649,-17.76187 -4.011637,-26.610922 0.223125,-2.706136 0.230702,-5.313499 -0.01651,-7.767094 z m -68.5211618,0.0085 c 0.1308481,0.04058 0.3196949,0.114891 0.4587708,0.160417 L 8.694229,27.007048 C 8.5864504,26.912425 8.4266076,26.788433 8.3267448,26.698761 Z m 5.0030188,1.909639 c 2.519293,1.061294 5.52967,2.437834 9.023877,4.149222 -0.316402,0.515939 -0.641041,1.020662 -0.945895,1.548163 -0.280142,0.483365 -0.525685,0.973727 -0.793628,1.460604 -3.113871,-2.079166 -5.710946,-3.911044 -7.816965,-5.482331 0.172372,-0.562526 0.332876,-1.131354 0.532611,-1.675311 z m -1.391823,5.104737 c 0.754075,0.550963 1.456737,1.073214 2.342322,1.69528 1.471573,1.035023 3.119139,2.144661 4.800654,3.264453 -2.611916,5.27497 -4.501396,10.665525 -5.598236,15.921231 -2.178516,-6.530365 -2.842617,-13.2936 -1.7972,-19.704122 0.06595,-0.402804 0.174024,-0.781093 0.252139,-1.17689 z m 13.328186,0.501934 c 0.153917,0.07777 0.307495,0.15201 0.462742,0.230467 0.152578,0.351323 0.3009,0.699828 0.458102,1.054297 -0.14303,1.200005 -0.278492,2.413311 -0.379675,3.655 -0.868101,-0.555171 -1.653501,-1.070753 -2.466576,-1.600705 0.296635,-0.542904 0.571824,-1.091426 0.884273,-1.63048 0.336829,-0.581433 0.691454,-1.141855 1.041464,-1.708232 z m -16.7202101,0.28826 c -1.3819353,8.628043 0.046138,17.826661 4.0034001,26.347525 -0.126234,1.451146 -0.207642,2.888625 -0.197753,4.293184 0.0083,1.197901 0.07448,2.35377 0.18127,3.478108 C 8.4249932,62.606728 6.0319184,55.386399 6.0497134,47.629459 6.0606289,43.00773 6.9699059,38.597917 8.5456229,34.502984 Z m 21.6945551,2.267959 c 4.812512,2.521195 10.099296,5.407369 15.8198,8.697746 3.340611,1.921896 6.400429,3.745714 9.324793,5.5156 1.379606,2.614013 2.612568,5.097026 3.714352,7.450101 -4.753192,-2.493871 -9.960872,-5.335561 -15.592392,-8.574448 -3.435209,-1.974787 -6.579066,-3.8494 -9.57296,-5.66376 -1.326229,-2.522594 -2.564126,-5.008772 -3.693593,-7.425586 z m -8.41614,3.700902 c 1.214837,0.789847 2.454715,1.586692 3.747318,2.403862 -0.07155,1.590194 -0.115355,3.203157 -0.115355,4.844147 0,11.72682 1.888495,22.224216 4.994451,30.093587 -5.106175,-3.641739 -9.627023,-8.548226 -13.014103,-14.394475 -0.567531,-0.978639 -1.082337,-1.973039 -1.574075,-2.975489 0.654222,-6.436446 2.695965,-13.283398 5.962094,-19.972027 z m 54.131084,0.337309 c 2.358136,7.081271 2.848214,14.272529 1.595154,20.761865 -2.136332,-1.567079 -4.531709,-3.221726 -7.098147,-4.92716 2.612256,-5.322947 4.447018,-10.68864 5.502993,-15.835409 z M 28.71126,44.833728 c 0.947866,0.587041 1.918151,1.178985 2.896012,1.774084 1.159452,2.178635 2.352531,4.371284 3.631962,6.577947 4.790442,8.267271 10.568294,16.840667 16.046549,23.375539 -3.368964,2.869709 -6.868427,5.106841 -10.332961,6.622777 -1.924085,-0.629768 -3.817516,-1.439583 -5.664147,-2.403852 -3.848502,-7.221737 -6.639377,-18.772031 -6.639377,-33.061373 0,-0.982142 0.03632,-1.929251 0.06164,-2.885469 z m 8.370313,5.054299 c 1.585944,0.936259 3.14815,1.868658 4.780224,2.807717 5.784777,3.326098 11.995038,6.717352 17.864846,9.751329 -0.373089,2.446598 -0.83219,4.756589 -1.367764,6.914908 -1.509462,1.804553 -3.071017,3.497382 -4.681012,5.03819 C 48.970813,68.781947 43.515289,61.071942 38.01956,51.584001 37.689326,51.014826 37.40424,50.456855 37.081573,49.888722 Z m 23.50032,4.28968 c 0.0037,0.0019 0.0083,0.0056 0.01248,0.0085 v 0.01681 l -0.01248,-0.02452 z m 3.081566,1.942203 c 0.8925,0.570237 1.707225,1.098433 2.541066,1.642737 -0.319034,0.587398 -0.614999,1.176186 -0.95414,1.761836 -0.311779,0.537298 -0.640041,1.054993 -0.962369,1.580389 -0.209613,-0.105085 -0.416264,-0.209465 -0.62818,-0.316992 -0.121942,-0.276708 -0.256413,-0.546408 -0.380327,-0.823125 0.151597,-1.259893 0.280143,-2.539407 0.38428,-3.844845 z m 5.264045,3.42489 c 3.088812,2.063049 5.680622,3.89037 7.779713,5.453599 -0.171382,0.567429 -0.328923,1.140456 -0.52897,1.691776 -2.510741,-1.059904 -5.508267,-2.426629 -8.982028,-4.128211 0.289039,-0.473907 0.587646,-0.936955 0.867789,-1.42032 0.306504,-0.529952 0.572145,-1.064797 0.863496,-1.597201 z m -3.313597,5.869712 c 3.428292,1.683717 6.546438,3.113843 9.300072,4.26866 -0.860203,1.772337 -1.899695,3.422081 -3.082226,4.95623 -0.823293,0.790542 -1.676901,1.550614 -2.569731,2.267611 -0.706947,-3.424185 -2.010437,-7.38006 -3.648437,-11.492153 z m -49.933224,1.186696 c 4.471729,7.092833 10.530063,12.804927 17.286436,16.530682 0.133481,0.23538 0.267613,0.468308 0.404386,0.695629 -6.37867,-1.919454 -12.040846,-5.415784 -16.546853,-10.010538 -0.652571,-2.153416 -1.022349,-4.582844 -1.143639,-7.215426 z m 65.174284,1.704024 c 0.113714,0.09982 0.280152,0.231181 0.384298,0.325747 -0.137764,-0.04377 -0.336169,-0.124697 -0.483161,-0.173379 0.03128,-0.05185 0.06788,-0.100173 0.09886,-0.152368 z m -17.591941,0.07007 c 1.6034,4.348873 2.649818,7.998613 3.102984,10.648008 -1.702602,1.127146 -3.519909,2.08932 -5.400149,2.94361 -0.823293,-0.678807 -1.705905,-1.481606 -2.65246,-2.420317 1.122221,-2.549917 2.092826,-5.440647 2.912817,-8.577952 0.693114,-0.840633 1.371717,-1.70579 2.036808,-2.593349 z m -7.13869,8.117008 c -0.06494,0.164615 -0.125235,0.336247 -0.190498,0.498064 -0.05045,-0.05607 -0.09821,-0.104371 -0.148973,-0.160417 0.114695,-0.108579 0.224785,-0.227669 0.33881,-0.337647 z m -2.739792,2.494575 c 0.379023,0.420312 0.750122,0.802095 1.123871,1.197902 -0.921174,1.816811 -1.913216,3.347466 -2.941499,4.630483 -0.22939,0.0066 -0.454817,0.02104 -0.685519,0.02104 -1.713821,0 -3.432576,-0.163574 -5.144085,-0.456746 2.587205,-1.464099 5.154624,-3.274964 7.647232,-5.392303 z M 21.733073,81.88882 c 1.777754,1.148862 3.658334,2.152364 5.610763,3.029779 -1.191759,-0.312844 -2.316942,-0.766424 -3.367313,-1.370982 -0.809121,-0.465152 -1.544411,-1.037484 -2.24312,-1.658498 z m 35.113372,0.646581 c 0.273547,0.257443 0.545782,0.512087 0.814064,0.753065 -0.524034,0.182838 -1.039171,0.386696 -1.573735,0.54747 0.255413,-0.425224 0.514137,-0.84764 0.759671,-1.300883 z m 9.61053,1.152366 c -0.114695,0.337656 -0.260366,0.607714 -0.463063,0.724352 -0.08696,0.04659 -0.207633,0.07007 -0.359229,0.07007 -0.130188,0 -0.28938,-0.04903 -0.434069,-0.07354 0.201055,-0.109621 0.408027,-0.206647 0.607093,-0.321538 0.221474,-0.127139 0.431748,-0.266197 0.648608,-0.399301 z m -23.739589,4.927159 c 0.636088,0.02978 1.277119,0.05185 1.920793,0.05363 h 0.103156 c 0.668054,0 1.330834,-0.01926 1.991642,-0.04903 -0.667394,0.237474 -1.334788,0.402804 -1.999889,0.402804 -0.669045,0 -1.344676,-0.166025 -2.016032,-0.40736 z"
     id="path901"
     style="mix-blend-mode:normal;stroke-width:0.339764" />
  <text
     xml:space="preserve"
     style="font-style:normal;font-weight:normal;font-size:19.2403px;line-height:1.25;font-family:sans-serif;fill:#0072ed;fill-opacity:1;stroke:none;stroke-width:0.481009"
     x="92.318573"
     y="42.814636"
     id="text913"
     transform="scale(1.0029246,0.99708391)"><tspan
       sodipodi:role="line"
       id="tspan911"
       x="92.318573"
       y="42.814636"
       style="stroke-width:0.481009">Mathieu</tspan><tspan
       sodipodi:role="line"
       x="92.318573"
       y="66.865013"
       id="tspan915"
       style="stroke-width:0.481009">De Keyzer</tspan></text>
</svg>
